<?xml version="1.0" encoding="UTF-8"?>
<!DOCTYPE svg PUBLIC "-//W3C//DTD SVG 1.1//EN" "http://www.w3.org/Graphics/SVG/1.1/DTD/svg11.dtd">
<!-- Creator: CorelDRAW -->
<svg xmlns="http://www.w3.org/2000/svg" xml:space="preserve" width="297mm" height="210mm" style="shape-rendering:geometricPrecision; text-rendering:geometricPrecision; image-rendering:optimizeQuality; fill-rule:evenodd; clip-rule:evenodd"
viewBox="0 0 297 210"
 xmlns:xlink="http://www.w3.org/1999/xlink">
 <defs>
  <style type="text/css">
   <![CDATA[
    .fil0 {fill:#E31E24}
    .fil2 {fill:#EF7F1A}
    .fil6 {fill:#E53524}
    .fil5 {fill:#E74923}
    .fil4 {fill:#EA5B21}
    .fil3 {fill:#ED6E1E}
    .fil1 {fill:#FEFEFE;fill-rule:nonzero}
   ]]>
  </style>
 </defs>
 <g id="Layer_x0020_1">
  <metadata id="CorelCorpID_0Corel-Layer"/>
  <path class="fil0" d="M55.2808 57.3955l119.825 0c2.0942,0 3.8076,1.7134 3.8076,3.8076l0 17.9065c0,2.0942 -1.7134,3.8076 -3.8076,3.8076l-119.825 0c-2.0942,0 -3.8076,-1.7134 -3.8076,-3.8076l0 -17.9065c0,-2.0942 1.7134,-3.8076 3.8076,-3.8076z"/>
  <path class="fil1" d="M69.8434 70.6736l-0.0193 0.2545c-0.0387,0.4931 -0.2965,0.738 -0.7767,0.738l-10.6189 0 0 1.9917c0,0.854 0.9442,1.2827 2.8328,1.2827l7.7861 0c0.5189,0 0.7767,0.2609 0.7767,0.783l0 0.2482c0,0.522 -0.2578,0.7831 -0.7767,0.7831l-7.8925 0c-0.2449,0 -0.551,-0.0192 -0.9152,-0.058 -2.6813,-0.2739 -4.022,-1.2633 -4.022,-2.9617l0 -5.9943c0,-1.1344 0.6571,-1.9765 1.9723,-2.5298 0.8826,-0.3715 1.9337,-0.5575 3.155,-0.5575l7.7808 0c0.5156,0 0.7735,0.2579 0.7735,0.7734l0 0.2482c0,0.5219 -0.2581,0.7831 -0.7735,0.7831l-7.8645 0 -0.6155 0.0386c-1.4986,0.0936 -2.2462,0.5093 -2.2462,1.244l0 2.1109 10.6574 0c0.5608,0 0.8219,0.2739 0.7864,0.8219z"/>
  <path class="fil1" d="M87.0852 75.4625c0,0.5608 -0.1451,0.9411 -0.4351,1.1441 -0.2095,0.1451 -0.5511,0.2159 -1.0312,0.2159 -0.1902,0 -0.4126,-0.0934 -0.6704,-0.2804 -0.0387,-0.0258 -0.1516,-0.116 -0.3417,-0.2804l-10.2934 -8.7658 0 8.4758c0,0.522 -0.261,0.7831 -0.7831,0.7831l-0.6542 0c-0.5156,0 -0.7735,-0.2611 -0.7735,-0.7831l0 -10.5287c0,-0.2707 0.1901,-0.5156 0.5672,-0.7348 0.1709,-0.0999 0.3577,-0.1514 0.5672,-0.1514 0.2998,0 0.6381,0.1063 1.0087,0.3223 0.1773,0.0998 0.3319,0.2062 0.4641,0.3189l10.1646 8.6596 0 -8.4307c0,-0.5156 0.261,-0.7734 0.783,-0.7734l0.6446 0c0.5221,0 0.7832,0.2578 0.7832,0.7734l0 10.0356z"/>
  <path class="fil1" d="M104.665 73.5257c0,1.2954 -0.6607,2.1946 -1.9821,2.6909l0.9088 0.519c0.2578,0.1449 0.3868,0.3254 0.3868,0.5382 0,0.3543 -0.2643,0.6573 -0.7863,0.9151 -0.0871,0.0452 -0.1902,0.0677 -0.3095,0.0677 -0.2771,0 -0.5188,-0.058 -0.7282,-0.1707l-2.4719 -1.3568 -4.2508 0c-3.8319,0 -5.7495,-1.0668 -5.7495,-3.2003l0 -5.7041c0,-1.6179 0.9185,-2.6041 2.7555,-2.9649 0.7122,-0.1387 1.708,-0.2063 2.9844,-0.2063l3.5417 0c1.2891,0 2.2591,0.0547 2.9069,0.1611 1.8627,0.3061 2.7942,1.3084 2.7942,3.0003l0 5.7108zm-2.2108 0.0709l0 -5.7978c0,-0.609 -0.4802,-1.0119 -1.4439,-1.2084 -0.435,-0.0871 -1.1408,-0.1322 -2.1237,-0.1322l-3.4548 0c-1.215,0 -2.0658,0.0742 -2.5557,0.2256 -0.6542,0.203 -0.983,0.5736 -0.983,1.115l0 5.7687c0,0.7058 0.5705,1.128 1.7082,1.2666 0.4157,0.0483 1.0247,0.0741 1.8305,0.0741l3.4548 0c1.2213,0 2.0947,-0.0838 2.6233,-0.2546 0.6285,-0.203 0.9443,-0.5543 0.9443,-1.057z"/>
  <path class="fil1" d="M122.348 73.3485c0,2.2719 -1.9691,3.4063 -5.9105,3.4063l-3.0971 0c-3.0711,0 -4.9276,-0.5672 -5.572,-1.6983 -0.232,-0.4094 -0.3481,-0.9797 -0.3481,-1.708l0 -7.9216c0,-0.5156 0.2579,-0.7734 0.7735,-0.7734l0.6542 0c0.522,0 0.783,0.2578 0.783,0.7734l0 7.7765c0,0.7606 0.4706,1.273 1.4148,1.5308 0.5125,0.1386 1.286,0.2063 2.3237,0.2063l3.039 0c1.0829,0 1.8595,-0.0645 2.3333,-0.1902 0.9378,-0.2513 1.405,-0.7637 1.405,-1.5373l0 -7.7861c0,-0.5156 0.2612,-0.7734 0.7832,-0.7734l0.6446 0c0.5156,0 0.7734,0.2578 0.7734,0.7734l0 7.9216z"/>
  <path class="fil1" d="M155.913 73.3485c0,2.2719 -1.9692,3.4063 -5.9106,3.4063l-3.097 0c-3.0712,0 -4.9276,-0.5672 -5.5721,-1.6983 -0.232,-0.4094 -0.348,-0.9797 -0.348,-1.708l0 -7.9216c0,-0.5156 0.2578,-0.7734 0.7734,-0.7734l0.6542 0c0.5221,0 0.7831,0.2578 0.7831,0.7734l0 7.7765c0,0.7606 0.4705,1.273 1.4148,1.5308 0.5124,0.1386 1.2859,0.2063 2.3236,0.2063l3.0391 0c1.0828,0 1.8594,-0.0645 2.3333,-0.1902 0.9378,-0.2513 1.405,-0.7637 1.405,-1.5373l0 -7.7861c0,-0.5156 0.2611,-0.7734 0.7832,-0.7734l0.6446 0c0.5156,0 0.7734,0.2578 0.7734,0.7734l0 7.9216z"/>
  <path class="fil1" d="M138.357 70.6736l-0.0193 0.2545c-0.0387,0.4931 -0.2965,0.738 -0.7767,0.738l-10.6189 0 0 1.9917c0,0.854 0.9443,1.2827 2.8328,1.2827l7.7861 0c0.5189,0 0.7767,0.2609 0.7767,0.783l0 0.2482c0,0.522 -0.2578,0.7831 -0.7767,0.7831l-7.8925 0c-0.2448,0 -0.551,-0.0192 -0.9151,-0.058 -2.6814,-0.2739 -4.0221,-1.2633 -4.0221,-2.9617l0 -5.9943c0,-1.1344 0.6571,-1.9765 1.9723,-2.5298 0.8827,-0.3715 1.9337,-0.5575 3.1551,-0.5575l7.7807 0c0.5156,0 0.7736,0.2579 0.7736,0.7734l0 0.2482c0,0.5219 -0.2581,0.7831 -0.7736,0.7831l-7.8645 0 -0.6155 0.0386c-1.4986,0.0936 -2.2462,0.5093 -2.2462,1.244l0 2.1109 10.6575 0c0.5608,0 0.8219,0.2739 0.7863,0.8219z"/>
  <path class="fil1" d="M171.618 70.6736l-0.0193 0.2545c-0.0387,0.4931 -0.2965,0.738 -0.7767,0.738l-10.6189 0 0 1.9917c0,0.854 0.9442,1.2827 2.8328,1.2827l7.7861 0c0.5189,0 0.7767,0.2609 0.7767,0.783l0 0.2482c0,0.522 -0.2578,0.7831 -0.7767,0.7831l-7.8925 0c-0.2449,0 -0.551,-0.0192 -0.9152,-0.058 -2.6813,-0.2739 -4.022,-1.2633 -4.022,-2.9617l0 -5.9943c0,-1.1344 0.6571,-1.9765 1.9723,-2.5298 0.8826,-0.3715 1.9337,-0.5575 3.155,-0.5575l7.7808 0c0.5156,0 0.7735,0.2579 0.7735,0.7734l0 0.2482c0,0.5219 -0.2581,0.7831 -0.7735,0.7831l-7.8645 0 -0.6155 0.0386c-1.4986,0.0936 -2.2463,0.5093 -2.2463,1.244l0 2.1109 10.6575 0c0.5608,0 0.8219,0.2739 0.7864,0.8219z"/>
  <path class="fil2" d="M62.9919 125.083l0 0zm6.4424 -6.4672l-0.047 -24.5904c-0.0031,-1.7684 -0.7343,-3.3802 -1.9078,-4.5498 -1.1752,-1.1709 -2.7935,-1.8964 -4.5677,-1.8934l-4.3687 0.0083c-1.7685,0.0035 -3.3803,0.7347 -4.5499,1.9086 -1.1708,1.1752 -1.896,2.7936 -1.8929,4.5673l0.0465 24.5899c0.0035,1.7689 0.7343,3.3807 1.9082,4.5503 1.1753,1.1708 2.7936,1.896 4.5673,1.8929l4.3696 -0.0082c1.7681,-0.0035 3.3799,-0.7343 4.5494,-1.9082 1.1709,-1.1753 1.8961,-2.7927 1.893,-4.5673z"/>
  <path class="fil3" d="M84.8601 133.223l0 0zm6.4359 -6.469l0 0zm-17.3441 -32.6871l0.0618 32.7276c0.0035,1.7694 0.7343,3.3816 1.9082,4.5512 1.1757,1.1708 2.794,1.8964 4.5686,1.8934l4.3696 -0.0083c1.769,-0.0035 3.3807,-0.7343 4.5503,-1.9082 1.1709,-1.1752 1.8965,-2.7931 1.8934,-4.5686l-0.0622 -32.7281c-0.0031,-1.7693 -0.7343,-3.3811 -1.9078,-4.5507 -1.1757,-1.1713 -2.794,-1.8968 -4.569,-1.8938l-4.3688 0.0083c-1.7693,0.0035 -3.3811,0.7347 -4.5507,1.9086 -1.1713,1.1757 -1.8964,2.794 -1.8934,4.5686z"/>
  <path class="fil4" d="M106.728 141.361l0 0zm6.4372 -6.4703l0 0zm-17.3628 -40.8244l0.0775 40.8654c0.003,1.7693 0.7347,3.382 1.909,4.552 1.1757,1.1713 2.7949,1.8973 4.5695,1.8942l4.3696 -0.0087c1.7689,-0.0034 3.3812,-0.7343 4.5516,-1.909 1.1713,-1.1757 1.8969,-2.794 1.8938,-4.5695l-0.0775 -40.8654c-0.003,-1.7693 -0.7347,-3.382 -1.909,-4.552 -1.1757,-1.1713 -2.7949,-1.8973 -4.5699,-1.8942l-4.3688 0.0082c-1.7693,0.0035 -3.382,0.7348 -4.552,1.9095 -1.1713,1.1757 -1.8969,2.7949 -1.8938,4.5695z"/>
  <path class="fil5" d="M128.591 149.521l0 0zm6.4437 -6.4885l0 0zm-0.0936 -49.0045l0 0zm-6.468 -6.4628l0 0zm-10.812 6.4968l0.0931 49.0031 -0.0078 0c0.0034,1.7824 0.7364,3.4034 1.9147,4.5768 1.1722,1.1674 2.7874,1.8904 4.5612,1.8873l4.3696 -0.0082 0 0.0078c1.768,-0.0035 3.3811,-0.736 4.5537,-1.9126 1.1683,-1.1726 1.8921,-2.7952 1.8891,-4.5837l0.0078 0 -0.0935 -49.0045c-0.0035,-1.7811 -0.7365,-3.402 -1.9148,-4.5755 -1.1713,-1.1674 -2.7866,-1.8904 -4.5611,-1.8873l-4.3688 0.0083 0 -0.0079c-1.7689,0.0035 -3.3825,0.7361 -4.5542,1.9126 -1.1682,1.1726 -1.8921,2.7961 -1.889,4.5838z"/>
  <path class="fil6" d="M150.46 157.66l0 0zm6.4441 -6.4898l0 0zm-17.392 -57.1078l0.1089 57.1408c0.003,1.7877 0.7338,3.4086 1.9069,4.5773 1.1721,1.1678 2.7883,1.8912 4.5624,1.8882l0 0.0078 4.3697 -0.0087c1.7684,-0.0035 3.382,-0.736 4.5546,-1.913 1.1687,-1.173 1.8925,-2.7961 1.8895,-4.5846l-0.1088 -57.1409 0.0078 0c-0.0035,-1.7824 -0.7369,-3.4038 -1.9152,-4.5773 -1.1721,-1.1678 -2.7883,-1.8908 -4.5624,-1.8877l-4.3688 0.0083 0 -0.0079c-1.7689,0.0035 -3.3829,0.7361 -4.5551,1.913 -1.1687,1.1731 -1.8925,2.797 -1.8895,4.5847z"/>
  <path class="fil0" d="M172.327 165.799l0 0zm6.4459 -6.4916l0 0zm-17.4185 -65.2455l0.124 65.2786 0.0079 0c0.003,1.7881 0.7338,3.4094 1.9077,4.5786 1.1726,1.1682 2.7888,1.8916 4.5634,1.8886l0 0.0078 4.3696 -0.0087c1.7689,-0.0035 3.3833,-0.7364 4.5559,-1.9134 1.1687,-1.173 1.893,-2.7966 1.89,-4.586l0.0078 0 -0.1241 -65.2786c-0.0034,-1.7828 -0.7373,-3.4046 -1.916,-4.5785 -1.1726,-1.1683 -2.7888,-1.8913 -4.5633,-1.8882l-4.3688 0.0083 0 -0.0079c-1.7698,0.0035 -3.3838,0.7361 -4.5564,1.9134 -1.1691,1.1735 -1.8929,2.7975 -1.8899,4.586l-0.0078 0z"/>
 </g>
</svg>
